<!DOCTYPE svg PUBLIC "-//W3C//DTD SVG 20010904//EN" "http://www.w3.org/TR/2001/REC-SVG-20010904/DTD/svg10.dtd">
<svg version="1.0" xmlns="http://www.w3.org/2000/svg" width="1500px" height="800px" viewBox="0 0 15000 8000" preserveAspectRatio="xMidYMid meet">
<g id="layer101" fill="#000000" stroke="none">
 <path d="M5061 6953 c-55 -5 -97 -36 -167 -124 -82 -103 -75 -99 -170 -99 -46 0 -146 6 -221 14 -227 24 -736 49 -852 43 -58 -4 -160 -16 -226 -27 -160 -26 -165 -26 -165 6 0 15 -12 37 -28 53 -34 34 -64 38 -434 47 -296 8 -318 4 -318 -52 0 -43 17 -52 125 -66 78 -10 93 -16 180 -70 53 -33 102 -70 110 -82 21 -32 52 -172 85 -388 31 -206 50 -303 129 -688 58 -275 103 -445 156 -582 20 -51 50 -138 66 -193 16 -54 35 -116 44 -137 8 -21 22 -69 31 -109 34 -150 76 -243 273 -606 39 -72 71 -134 71 -137 0 -2 -26 6 -57 18 -115 46 -110 42 -117 110 -4 33 -12 78 -17 99 -8 32 -13 36 -25 27 -11 -10 -14 -9 -14 3 0 17 -52 47 -81 47 -10 0 -23 8 -28 18 -6 9 -11 14 -11 10 0 -4 -11 -3 -24 2 -20 7 -25 5 -29 -10 -6 -24 -20 -22 -114 25 -61 30 -83 46 -91 67 -7 20 -15 26 -26 22 -11 -4 -16 -1 -16 10 0 19 -11 21 -28 4 -9 -9 -12 -8 -12 6 0 15 -5 17 -27 11 -50 -13 -86 -8 -103 12 -11 14 -21 18 -35 12 -29 -11 -32 -11 -49 7 -9 8 -16 29 -16 45 0 47 -17 69 -50 69 -20 0 -30 -5 -30 -15 0 -29 -44 -26 -130 10 -260 110 -409 168 -530 204 -74 23 -155 51 -180 63 -25 12 -85 34 -135 49 -49 15 -135 43 -190 63 -177 62 -528 163 -660 189 -38 8 -140 33 -226 56 -86 23 -193 45 -238 49 -72 7 -87 6 -133 -14 l-51 -21 34 -11 c36 -12 242 -64 444 -112 593 -141 1297 -377 1780 -597 l130 -59 3 -42 c3 -35 7 -43 28 -48 13 -3 41 1 62 9 49 20 68 9 77 -45 4 -24 15 -54 24 -68 23 -37 144 -181 176 -210 36 -32 124 -144 155 -195 13 -22 44 -66 67 -99 24 -32 43 -63 43 -70 0 -6 14 -29 30 -50 17 -22 30 -47 30 -55 0 -9 25 -70 56 -136 31 -66 63 -133 70 -150 8 -16 25 -75 39 -130 33 -138 54 -188 111 -274 27 -41 63 -95 79 -121 57 -89 116 -148 202 -200 52 -33 89 -63 96 -79 11 -24 82 -137 129 -204 19 -27 19 -29 2 -48 -13 -14 -29 -20 -54 -18 -56 4 -76 -7 -89 -51 -6 -21 -19 -41 -29 -45 -25 -8 -55 -80 -48 -115 5 -27 3 -29 -32 -32 -41 -3 -42 -7 -27 -110 8 -50 12 -43 -72 -118 -20 -17 -23 -29 -23 -98 0 -71 3 -83 32 -128 55 -85 107 -142 136 -149 15 -3 55 -24 89 -45 74 -46 119 -60 193 -60 78 0 145 21 225 70 85 51 128 91 162 149 23 37 26 55 27 135 1 112 -38 254 -90 329 -29 40 -34 56 -34 103 0 75 32 127 121 198 38 31 101 82 140 113 99 80 143 170 159 328 9 89 -42 408 -100 633 -44 167 -55 195 -94 231 -14 14 -26 29 -26 35 0 6 28 52 63 102 35 51 75 121 91 156 27 65 27 65 86 83 33 10 71 15 88 12 36 -7 74 27 66 58 -4 17 20 36 138 112 79 51 226 141 328 201 347 204 757 468 845 545 39 35 40 36 24 62 -9 15 -28 35 -42 43 -24 15 -27 14 -70 -21 -55 -45 -277 -185 -413 -260 -56 -30 -176 -102 -268 -159 -91 -57 -236 -146 -321 -198 -86 -52 -203 -126 -261 -163 -59 -37 -104 -62 -101 -55 3 7 23 54 45 103 57 132 84 223 142 480 46 203 55 233 80 260 16 17 41 62 55 100 27 73 90 201 134 272 31 49 166 165 233 199 25 13 59 40 74 61 14 21 47 53 73 72 25 19 91 75 146 125 98 89 110 104 259 333 26 40 67 90 91 111 60 53 160 213 141 227 -7 6 -32 27 -55 48 l-42 38 63 84 c88 118 138 204 138 237 0 24 -10 35 -70 74 -39 25 -125 74 -192 110 l-123 65 -176 -1 c-164 0 -259 -9 -302 -25 -26 -11 -16 -38 18 -49 114 -36 227 -98 293 -160 30 -28 78 -114 68 -123 -5 -6 -194 99 -301 167 -157 100 -231 139 -390 206 -162 67 -170 68 -304 57z m-1303 -3490 c32 -27 68 -55 82 -64 l24 -16 -18 -45 c-9 -26 -23 -48 -30 -51 -21 -8 -68 63 -96 145 -14 43 -25 78 -23 78 2 0 30 -21 61 -47z"/>
 <path d="M8293 5208 c-21 -18 -40 -33 -42 -35 -2 -1 2 -9 9 -18 11 -13 -5 -15 -144 -15 l-156 0 0 40 0 40 -45 0 -45 0 -2 -216 -3 -217 -31 27 c-18 14 -34 26 -38 26 -3 0 -17 -17 -30 -37 l-26 -37 77 -70 c68 -63 133 -145 133 -168 0 -4 -38 -8 -85 -8 l-85 0 0 -45 0 -45 47 0 48 0 -32 -31 -31 -32 48 -59 c26 -33 59 -79 72 -104 26 -49 30 -50 82 -29 40 17 46 34 16 53 -42 26 -20 32 120 32 l140 0 0 45 0 45 -89 0 c-86 0 -89 1 -95 24 -3 13 -9 31 -12 40 -5 14 9 16 125 16 l131 0 1 33 c1 31 2 30 26 -23 14 -30 37 -102 52 -160 15 -58 30 -107 34 -108 4 -2 26 -1 48 3 42 7 58 26 42 48 -6 6 -15 35 -22 62 -7 28 -14 58 -17 68 -5 15 5 17 109 17 79 0 117 -4 119 -12 3 -8 18 -4 46 12 42 23 50 37 34 55 -5 6 -17 33 -27 60 -23 67 -96 235 -101 235 -12 0 -85 -52 -82 -58 21 -39 77 -162 82 -179 7 -22 5 -23 -43 -23 l-51 0 0 123 c0 78 6 144 15 181 30 115 104 227 203 309 l33 27 -28 50 c-15 27 -31 50 -35 50 -16 0 -92 -77 -135 -137 -25 -35 -58 -93 -73 -129 l-28 -67 -7 43 c-15 90 -136 289 -195 320 -15 8 -27 4 -57 -22z m121 -251 c19 -40 42 -101 51 -137 16 -64 34 -371 21 -359 -4 3 -25 44 -47 90 -56 116 -54 114 -100 81 -44 -31 -47 -43 -18 -83 l20 -29 -73 1 c-40 0 -67 3 -60 6 13 5 17 33 4 33 -5 0 -16 16 -25 35 l-17 35 75 0 75 0 0 45 0 45 -80 0 c-73 0 -80 2 -80 20 0 18 7 20 65 20 l65 0 0 45 0 45 -65 0 c-63 0 -65 1 -65 25 0 24 2 25 65 25 l65 0 0 45 0 45 -65 0 -65 0 0 30 0 30 75 0 75 0 0 28 1 27 34 -38 c18 -21 49 -71 69 -110z m-344 63 c0 -30 -1 -30 -55 -30 -54 0 -55 0 -55 30 0 30 1 30 55 30 54 0 55 0 55 -30z m0 -145 c0 -24 -3 -25 -55 -25 -52 0 -55 1 -55 25 0 24 3 25 55 25 52 0 55 -1 55 -25z m0 -135 c0 -18 -7 -20 -55 -20 -48 0 -55 2 -55 20 0 18 7 20 55 20 48 0 55 -2 55 -20z m35 -167 l24 -53 -37 1 c-35 0 -39 4 -64 55 l-27 55 40 -3 c37 -3 41 -6 64 -55z m-99 -185 l13 -38 -32 0 c-25 0 -42 10 -72 41 l-40 40 59 -3 c58 -3 59 -3 72 -40z"/>
 <path d="M6820 5108 l-1 -123 -22 30 c-12 17 -43 52 -68 80 l-47 50 -22 -20 c-12 -11 -30 -31 -40 -45 l-19 -26 58 -46 c31 -26 78 -74 105 -107 l47 -61 -90 0 -91 0 0 -50 0 -50 95 0 95 0 0 -45 0 -45 -110 0 -110 0 0 -50 0 -50 70 0 c39 0 70 -2 70 -5 0 -3 -11 -33 -25 -67 -14 -34 -25 -63 -25 -64 0 -1 10 -5 23 -7 12 -2 -2 -5 -30 -6 l-53 -1 0 -50 0 -50 95 0 95 0 0 -65 0 -65 65 0 c51 0 65 3 65 15 0 8 -4 15 -10 15 -5 0 -10 23 -10 50 l0 50 100 0 100 0 0 50 c0 48 -1 50 -28 50 -26 0 -31 6 -55 68 -15 37 -27 71 -27 75 0 4 32 7 70 7 l70 0 0 50 0 50 -115 0 -115 0 0 45 0 45 100 0 100 0 0 50 0 50 -100 0 c-56 0 -100 4 -100 9 0 6 28 24 63 41 34 16 75 41 91 53 l29 23 -27 47 c-16 26 -30 47 -33 47 -3 0 -28 -20 -56 -45 -29 -25 -55 -45 -59 -45 -5 0 -8 59 -8 130 l0 130 -55 0 -55 0 0 -122z m120 -624 c11 -36 20 -70 20 -75 0 -5 -36 -9 -80 -9 -44 0 -80 2 -80 4 0 2 9 25 21 50 11 26 18 53 16 61 -3 7 -23 17 -44 23 -35 9 -31 10 44 11 l82 1 21 -66z"/>
 <path d="M7035 5184 l-27 -46 24 -16 c49 -33 108 -106 130 -161 21 -53 23 -72 26 -375 l4 -319 55 7 c47 5 73 1 168 -29 62 -19 119 -35 126 -35 15 1 79 82 79 100 0 5 -13 10 -28 10 -15 0 -86 11 -157 25 -72 14 -131 25 -132 25 -2 0 -3 43 -3 95 l0 95 180 0 180 0 0 50 0 50 -70 0 -70 0 0 285 0 285 -55 0 -55 0 0 -285 0 -285 -55 0 -55 0 0 103 c0 175 -29 276 -106 365 -31 36 -113 102 -127 102 -3 0 -17 -21 -32 -46z"/>
 <path d="M9140 5044 c0 -145 -3 -185 -12 -181 -86 34 -105 43 -115 56 -10 14 -14 10 -28 -22 -9 -21 -18 -50 -21 -65 -6 -27 -3 -28 85 -57 l91 -29 0 -118 0 -118 -33 0 c-33 0 -33 1 -50 73 -25 104 -27 106 -81 80 l-44 -22 14 -42 c22 -62 42 -164 50 -253 l7 -78 50 7 c60 7 71 13 59 28 -5 7 -12 29 -16 50 -7 35 -5 37 19 37 l25 0 0 -110 0 -110 58 0 57 0 -3 110 -4 110 56 0 56 0 0 60 0 60 -55 0 -55 0 0 95 0 94 42 -15 c44 -15 57 -9 58 26 0 8 3 24 6 36 5 18 -3 24 -50 44 l-56 22 0 209 0 209 -55 0 -55 0 0 -186z"/>
 <path d="M10160 5040 l0 -190 175 0 175 0 0 180 0 180 -45 0 c-25 0 -45 -4 -45 -10 0 -6 -35 -10 -85 -10 -78 0 -85 2 -85 20 0 17 -7 20 -45 20 l-45 0 0 -190z m260 -20 l0 -80 -85 0 -85 0 0 80 0 80 85 0 85 0 0 -80z"/>
 <path d="M10550 5184 c-28 -50 -26 -53 45 -79 57 -20 165 -82 165 -95 0 -4 -16 -34 -35 -65 -19 -32 -45 -84 -57 -117 -22 -56 -24 -58 -60 -58 l-38 0 0 -53 c0 -41 -6 -61 -25 -87 -14 -19 -25 -36 -25 -39 0 -3 14 -14 30 -23 53 -30 70 -84 70 -230 l0 -128 180 0 179 0 3 143 3 142 35 0 c32 0 36 -3 44 -37 10 -42 14 -43 69 -27 41 11 45 25 27 91 -18 62 -48 78 -150 78 -73 0 -92 -3 -114 -21 -26 -20 -26 -22 -26 -145 l0 -124 -69 0 -69 0 -4 98 c-3 73 -9 107 -25 137 -21 40 -71 93 -108 114 -15 8 34 11 207 10 221 -1 227 -1 257 22 30 22 40 44 23 51 -5 2 -27 39 -50 83 -23 44 -60 103 -81 132 l-39 51 76 35 c43 19 97 41 122 48 25 7 49 16 54 20 6 6 -10 109 -18 109 -14 0 -179 -71 -234 -100 l-73 -40 -57 39 c-55 37 -139 83 -186 101 -20 7 -25 3 -46 -36z m327 -286 c17 -24 40 -62 52 -85 l21 -43 -100 0 c-62 0 -100 4 -100 10 0 24 78 160 91 160 3 0 19 -19 36 -42z"/>
 <path d="M9656 5189 c-12 -61 -9 -68 32 -71 l37 -3 3 -127 3 -128 -171 0 -170 0 0 -50 0 -50 170 0 170 0 0 -55 0 -55 -190 0 -190 0 0 -50 0 -50 125 0 125 0 0 -60 0 -60 -100 0 -100 0 0 -50 0 -50 100 0 100 0 0 -80 0 -80 58 0 59 0 -5 80 -5 80 112 0 111 0 0 50 0 50 -110 0 -110 0 0 60 0 60 145 0 145 0 0 50 0 50 -80 0 -80 0 0 55 0 55 65 0 65 0 0 50 0 50 -64 0 -64 0 -4 166 c-4 196 -3 194 -109 194 l-66 0 -7 -31z"/>
 <path d="M13860 5121 c-22 -33 -40 -64 -40 -68 0 -5 42 -21 94 -37 255 -76 465 -224 608 -427 23 -32 45 -59 48 -59 3 0 25 20 49 44 l42 43 -60 80 c-140 186 -358 342 -591 423 -36 13 -71 31 -79 42 -7 10 -17 18 -22 18 -4 0 -26 -27 -49 -59z"/>
 <path d="M9491 5009 l-64 -70 34 -29 c19 -16 40 -29 47 -30 15 0 109 85 124 114 9 16 4 24 -28 52 -22 18 -41 33 -44 34 -3 0 -34 -32 -69 -71z"/>
 <path d="M12130 4918 c-218 -206 -402 -368 -419 -368 -12 0 -72 60 -162 161 l-143 162 -49 -53 -49 -53 164 -164 c90 -90 178 -173 196 -185 61 -37 78 -27 339 200 130 114 255 223 277 243 l40 37 -49 46 c-28 25 -54 45 -60 45 -5 0 -44 -32 -85 -71z"/>
 <path d="M10180 4730 l0 -50 155 0 155 0 0 50 0 50 -155 0 -155 0 0 -50z"/>
 <path d="M12460 4700 l0 -60 515 0 515 0 0 60 0 60 -515 0 -515 0 0 -60z"/>
 <path d="M13889 4702 c-30 -21 -80 -54 -111 -73 -32 -18 -58 -38 -58 -42 0 -10 61 -97 68 -97 13 0 202 115 241 146 4 4 -72 103 -80 104 -3 0 -30 -17 -60 -38z"/>
 <path d="M10180 4570 l0 -50 155 0 155 0 0 50 0 50 -155 0 -155 0 0 -50z"/>
 <path d="M12059 4471 c-47 -15 -66 -30 -83 -65 -58 -122 58 -238 180 -180 85 40 91 177 11 228 -30 19 -76 26 -108 17z m86 -76 c30 -30 32 -64 4 -99 -42 -53 -129 -23 -129 46 0 69 77 102 125 53z"/>
 <path d="M13971 4399 c-57 -37 -108 -70 -114 -72 -9 -3 49 -107 60 -107 19 0 233 139 233 152 0 13 -59 98 -68 97 -4 0 -54 -32 -111 -70z"/>
 <path d="M10110 4410 l0 -50 220 0 220 0 0 50 0 50 -220 0 -220 0 0 -50z"/>
 <path d="M14368 4364 c-43 -42 -78 -80 -78 -83 0 -8 56 -51 66 -51 12 0 154 133 154 144 0 11 -51 66 -61 66 -2 0 -39 -35 -81 -76z"/>
 <path d="M14477 4284 c-43 -41 -75 -79 -72 -84 3 -5 19 -18 35 -30 l29 -21 71 62 c39 34 74 68 77 76 5 13 -42 73 -56 73 -3 0 -41 -34 -84 -76z"/>
 <path d="M10180 4250 l0 -50 155 0 155 0 0 50 0 50 -155 0 -155 0 0 -50z"/>
 <path d="M9240 3860 l0 -200 120 0 120 0 0 -55 0 -55 -160 0 -160 0 0 73 c0 39 -7 103 -15 142 -16 73 -68 193 -102 235 l-21 24 -45 -37 -45 -37 34 -58 c73 -121 78 -148 82 -519 l3 -333 415 0 414 0 0 160 0 161 -145 -7 -145 -7 0 51 0 52 200 0 200 0 0 50 0 50 -200 0 -200 0 0 55 0 55 150 0 150 0 0 190 0 190 -55 0 c-42 0 -55 -3 -55 -15 0 -13 -31 -15 -215 -15 l-215 0 0 25 c0 24 -3 25 -55 25 l-55 0 0 -200z m540 -25 l0 -85 -215 0 -215 0 0 85 0 85 215 0 215 0 0 -85z m-300 -435 l0 -50 -160 0 -160 0 0 50 0 50 160 0 160 0 0 -50z m290 -205 l0 -55 -305 0 -305 0 0 55 0 55 305 0 305 0 0 -55z"/>
 <path d="M13100 3570 l0 -490 139 0 c84 0 142 -4 146 -10 4 -6 25 5 51 26 33 27 42 40 34 49 -6 7 -33 79 -60 159 l-49 147 40 52 c70 93 84 131 84 232 0 102 -16 145 -65 170 -30 15 -135 21 -143 8 -3 -5 -8 -32 -12 -60 l-7 -53 45 0 c66 0 81 -18 75 -95 -6 -64 -38 -139 -82 -193 -15 -16 -26 -35 -26 -41 0 -6 16 -69 35 -140 19 -71 35 -134 35 -140 0 -7 -24 -11 -65 -11 l-65 0 0 440 0 440 -55 0 -55 0 0 -490z"/>
 <path d="M10280 3815 l0 -235 350 0 350 0 0 225 0 225 -55 0 c-48 0 -55 -2 -55 -20 0 -19 -7 -20 -240 -20 l-240 0 0 30 c0 30 -1 30 -55 30 l-55 0 0 -235z m590 -30 l0 -105 -240 0 -240 0 0 105 0 105 240 0 240 0 0 -105z"/>
 <path d="M11308 3991 l-25 -58 78 -47 79 -47 0 -140 0 -139 -70 0 -70 0 0 -45 0 -45 125 0 125 0 0 189 0 190 30 21 c16 11 51 31 77 43 46 21 63 22 366 25 l318 4 -6 31 c-15 73 13 67 -293 67 -152 0 -304 -4 -336 -10 -67 -11 -154 -51 -187 -86 l-21 -23 -63 54 c-100 84 -98 84 -127 16z"/>
 <path d="M7805 4003 c-32 -76 -32 -75 39 -107 210 -91 336 -249 365 -457 l8 -59 -204 0 -203 0 0 -60 0 -60 210 0 210 0 0 -120 0 -120 63 0 63 0 -4 120 -4 120 216 0 216 0 0 60 0 60 -211 0 -211 0 6 28 c13 51 83 187 131 250 56 74 163 161 257 208 38 19 68 37 68 40 0 12 -62 114 -69 114 -23 0 -184 -113 -241 -169 -71 -69 -159 -196 -186 -268 l-16 -42 -27 77 c-62 177 -186 306 -377 393 -35 16 -68 29 -74 29 -5 0 -17 -17 -25 -37z"/>
 <path d="M12530 3805 l0 -225 225 0 225 0 0 215 0 215 -55 0 c-52 0 -55 -1 -55 -25 l0 -25 -115 0 -115 0 0 35 0 35 -55 0 -55 0 0 -225z m340 -35 l0 -90 -115 0 -115 0 0 90 0 90 115 0 115 0 0 -90z"/>
 <path d="M6940 3904 c0 -64 -3 -114 -7 -112 -87 40 -235 122 -239 133 -4 8 -10 15 -15 15 -12 0 -71 -119 -65 -129 3 -4 34 -18 68 -31 35 -12 107 -43 161 -68 l97 -45 0 -124 0 -123 -150 0 -150 0 0 -60 0 -60 150 0 150 0 0 -140 0 -140 53 0 c61 0 88 13 69 32 -9 9 -12 123 -12 490 l0 478 -55 0 -55 0 0 -116z"/>
 <path d="M7199 3991 l-24 -19 -3 -476 -3 -476 61 0 c46 0 62 4 67 16 3 9 1 19 -6 23 -8 5 -11 50 -9 155 l3 148 55 -38 c30 -20 81 -60 113 -87 55 -47 59 -49 72 -31 68 89 76 114 37 114 -9 0 -44 19 -77 41 -33 21 -93 56 -133 77 l-72 37 2 205 3 205 102 3 c116 3 116 3 128 -81 4 -26 11 -49 15 -52 12 -7 110 15 110 25 0 22 -34 168 -43 185 -21 41 -36 44 -208 45 -150 0 -169 -2 -190 -19z"/>
 <path d="M11680 3600 l0 -299 91 -3 91 -3 13 -32 14 -33 -154 0 -155 0 0 -45 0 -45 96 0 95 0 -37 -46 -38 -46 34 -29 c19 -16 38 -29 43 -29 10 0 97 91 97 103 0 5 -10 17 -22 28 -23 18 -23 18 54 19 l77 0 28 -76 28 -76 54 6 c64 8 69 11 54 34 -7 9 -26 38 -43 65 l-30 47 120 0 120 0 0 45 0 45 -153 0 -153 0 -17 29 c-9 16 -17 32 -17 35 0 3 54 6 120 6 l120 0 0 290 0 290 -45 0 c-25 0 -45 -4 -45 -10 0 -6 -65 -10 -175 -10 -168 0 -175 1 -175 20 0 17 -7 20 -45 20 l-45 0 0 -300z m440 135 l0 -35 -175 0 -175 0 0 35 0 35 175 0 175 0 0 -35z m0 -155 l0 -30 -175 0 -175 0 0 30 0 30 175 0 175 0 0 -30z m0 -155 l0 -35 -175 0 -175 0 0 35 0 35 175 0 175 0 0 -35z"/>
 <path d="M10143 3473 l-33 -47 68 -36 c101 -53 160 -96 232 -170 54 -54 129 -162 143 -204 2 -6 27 -5 68 3 76 15 83 19 69 35 -7 10 3 27 42 68 95 99 228 184 363 233 28 10 51 19 53 20 5 4 -48 115 -55 115 -5 0 -52 -22 -106 -48 l-97 -48 0 48 0 48 -260 0 -260 0 0 -42 c0 -38 -1 -40 -17 -25 -24 21 -155 97 -168 97 -5 0 -25 -21 -42 -47z m681 -127 c-65 -47 -132 -110 -183 -170 -18 -21 -33 -37 -35 -35 -1 2 -21 34 -45 72 -24 37 -70 92 -103 122 l-59 55 242 0 241 0 -58 -44z"/>
 <path d="M12450 3460 l0 -50 85 0 c63 0 83 -3 80 -12 -2 -7 -13 -46 -25 -85 -20 -69 -22 -73 -50 -73 -29 0 -30 -1 -30 -50 l0 -50 95 0 95 0 0 -70 0 -70 70 0 c63 0 70 2 70 20 0 11 -4 20 -10 20 -5 0 -10 23 -10 50 l0 50 110 0 110 0 0 50 c0 50 0 50 -33 50 -33 0 -34 2 -60 78 -15 42 -27 80 -27 84 0 4 37 8 83 10 l82 3 3 48 3 47 -320 0 -321 0 0 -50z m382 -135 l25 -85 -83 0 c-55 0 -84 4 -84 11 0 11 26 121 35 147 3 7 21 12 43 12 l38 0 26 -85z"/>
 <path d="M11460 3271 c0 -5 -34 -47 -75 -94 l-75 -86 41 -32 41 -33 87 88 86 88 -45 39 c-45 39 -60 47 -60 30z"/>
 </g>

</svg>